<svg width="129" height="32" viewBox="0 0 129 32" fill="none" xmlns="http://www.w3.org/2000/svg">
<path d="M108.607 10.3496V6.60661C109.165 6.37558 109.637 6.00876 109.969 5.54887C110.301 5.08898 110.479 4.55495 110.482 4.00901V3.92164C110.479 3.15869 110.136 2.42757 109.528 1.88807C108.919 1.34858 108.094 1.04459 107.233 1.04254H107.135C106.274 1.04459 105.449 1.34858 104.84 1.88807C104.232 2.42757 103.889 3.15869 103.886 3.92164V4.00901C103.889 4.55495 104.067 5.08898 104.399 5.54887C104.731 6.00876 105.203 6.37558 105.761 6.60661V10.3496C104.157 10.5671 102.645 11.1565 101.38 12.0581L89.7839 4.06143C89.8664 3.79763 89.9106 3.52557 89.9153 3.25186C89.9162 2.60947 89.7021 1.98128 89.3001 1.44673C88.8982 0.912174 88.3264 0.495267 87.6571 0.248727C86.9878 0.00218587 86.251 -0.0629153 85.54 0.0616553C84.8289 0.186226 84.1755 0.494874 83.6624 0.948568C83.1493 1.40226 82.7995 1.98063 82.6572 2.61052C82.515 3.24042 82.5866 3.89355 82.8632 4.48734C83.1398 5.08112 83.6088 5.58888 84.211 5.94641C84.8132 6.30394 85.5214 6.49518 86.2462 6.49595C86.8829 6.49385 87.5077 6.34319 88.0578 6.05914L99.4593 13.9257C98.4323 15.2989 97.8965 16.9146 97.9219 18.5619C97.9473 20.2091 98.5327 21.8113 99.6016 23.1591L96.1319 26.2343C95.8534 26.1557 95.5633 26.1138 95.271 26.11C94.6753 26.11 94.093 26.2666 93.5977 26.5599C93.1024 26.8532 92.7164 27.2701 92.4884 27.7579C92.2604 28.2457 92.2008 28.7824 92.317 29.3002C92.4332 29.818 92.7201 30.2937 93.1413 30.667C93.5625 31.0403 94.0992 31.2946 94.6834 31.3976C95.2677 31.5006 95.8733 31.4477 96.4237 31.2457C96.974 31.0436 97.4444 30.7015 97.7754 30.2625C98.1063 29.8235 98.283 29.3074 98.283 28.7794C98.2789 28.5204 98.2317 28.2633 98.1428 28.0165L101.575 24.9743C102.696 25.7328 103.997 26.2544 105.38 26.4993C106.762 26.7441 108.19 26.7058 109.553 26.3871C110.916 26.0685 112.179 25.478 113.246 24.6607C114.313 23.8434 115.154 22.8209 115.707 21.6713C116.26 20.5217 116.509 19.2754 116.435 18.0275C116.362 16.7796 115.967 15.5631 115.282 14.4709C114.597 13.3786 113.64 12.4395 112.483 11.7253C111.326 11.0111 110 10.5405 108.607 10.3496V10.3496ZM107.185 22.6621C106.246 22.6621 105.328 22.4152 104.547 21.9527C103.766 21.4902 103.157 20.8329 102.798 20.0638C102.438 19.2947 102.344 18.4484 102.527 17.632C102.711 16.8155 103.163 16.0655 103.827 15.4769C104.491 14.8883 105.337 14.4874 106.259 14.325C107.18 14.1626 108.135 14.2459 109.002 14.5645C109.87 14.8831 110.612 15.4225 111.134 16.1147C111.656 16.8069 111.934 17.6206 111.934 18.4531C111.934 19.5694 111.434 20.6399 110.543 21.4293C109.653 22.2186 108.445 22.6621 107.185 22.6621" fill="#FF7A59"/>
<path d="M13.8877 5.10645V14.1942H4.47079V5.10645H0V26.7997H4.47079V18.0071H13.8877V26.7997H18.3585V5.10645H13.8877Z" fill="#33475B"/>
<path d="M32.6667 19.7869C32.6667 20.6563 32.2771 21.4901 31.5834 22.1049C30.8898 22.7196 29.949 23.065 28.9681 23.065C27.9872 23.065 27.0464 22.7196 26.3528 22.1049C25.6591 21.4901 25.2695 20.6563 25.2695 19.7869V10.4953H21.0287V19.7869C21.0287 21.6513 21.8643 23.4394 23.3518 24.7578C24.8393 26.0761 26.8568 26.8167 28.9604 26.8167C31.0641 26.8167 33.0815 26.0761 34.569 24.7578C36.0565 23.4394 36.8922 21.6513 36.8922 19.7869V10.4953H32.6667V19.7869Z" fill="#33475B"/>
<path d="M64.0881 11.4529C64.0881 9.54841 65.5097 8.94463 67.0672 8.94463C68.3223 8.94463 69.9805 9.79108 71.0648 10.8181L73.8424 7.91762C72.4558 6.25578 69.6432 5.10647 67.341 5.10647C62.741 5.10647 59.4136 7.4944 59.4136 11.4529C59.4136 18.7973 69.5424 16.4676 69.5424 20.5775C69.5424 21.8453 68.1537 22.9655 66.5634 22.9655C64.0553 22.9655 63.2426 21.8783 62.0904 20.729L59.0084 23.5693C60.9798 25.7145 63.4113 26.8036 66.3246 26.8036C70.6946 26.8036 74.2104 24.3866 74.2104 20.6086C74.2104 12.4547 64.0815 14.9882 64.0815 11.4529" fill="#33475B"/>
<path d="M126.749 23.3341C124.243 23.3341 123.532 22.3731 123.532 20.9015V14.3881H127.426V11.0877H123.532V6.7331L119.232 8.44348V21.7111C119.232 25.1047 121.873 26.815 125.496 26.815C126.065 26.8242 126.633 26.7839 127.192 26.6947L128.241 23.272C127.768 23.3011 127.225 23.3302 126.749 23.3302" fill="#33475B"/>
<path d="M48.8095 10.6049C46.7088 10.6049 45.2434 11.1446 43.8261 12.3774V5.23688H39.5788V18.4715C39.5788 23.4259 43.6202 26.8195 48.1611 26.8195C53.1992 26.8195 57.6306 23.3658 57.6306 18.7141C57.6306 14.1208 53.5519 10.6068 48.8095 10.6068V10.6049ZM48.7832 23.0318C47.8301 23.0318 46.8984 22.7813 46.1059 22.312C45.3134 21.8427 44.6957 21.1757 44.331 20.3952C43.9662 19.6148 43.8708 18.756 44.0567 17.9275C44.2427 17.099 44.7016 16.3379 45.3756 15.7406C46.0496 15.1433 46.9082 14.7365 47.8431 14.5717C48.7779 14.4069 49.7468 14.4915 50.6274 14.8148C51.508 15.138 52.2606 15.6855 52.7901 16.3878C53.3196 17.0902 53.6023 17.916 53.6023 18.7607C53.6023 19.8935 53.0946 20.9799 52.1908 21.7809C51.2871 22.5818 50.0613 23.0318 48.7832 23.0318Z" fill="#33475B"/>
<path d="M94.9278 18.5153C94.9278 13.8559 90.5052 10.4099 85.4584 10.4099C80.9175 10.4099 76.876 13.8035 76.876 18.758V32.0003H81.1234V24.8501C82.5384 26.0809 84.0061 26.6226 86.1045 26.6226C90.8469 26.6226 94.9256 23.1106 94.9256 18.5153H94.9278ZM90.9061 18.4687C90.9061 19.3134 90.6235 20.1392 90.0939 20.8416C89.5644 21.544 88.8118 22.0914 87.9312 22.4147C87.0506 22.7379 86.0817 22.8225 85.1469 22.6577C84.2121 22.4929 83.3534 22.0861 82.6794 21.4888C82.0055 20.8915 81.5465 20.1304 81.3605 19.3019C81.1746 18.4734 81.27 17.6146 81.6348 16.8342C81.9995 16.0538 82.6172 15.3867 83.4097 14.9174C84.2022 14.4481 85.1339 14.1976 86.087 14.1976C87.3651 14.1976 88.5909 14.6476 89.4946 15.4486C90.3984 16.2495 90.9061 17.3359 90.9061 18.4687Z" fill="#33475B"/>
</svg>
